# xmcd
#
# Track frame offsets:
#	150
#	37928
#	62001
#	77454
#	101140
#	124555
#	139381
#
# Disc length: 2090 seconds
#
# Revision: 1
# Processed by: cddbd v1.4PL0 Copyright (c) Steve Scherf et al.
# Submitted via: audiograbber 1.80
#
DISCID=55082807
DTITLE=Esther Philips - Performance
DYEAR=1900
DGENRE=
TTITLE0=i feel the same
TTITLE1=performance
TTITLE2=doing our thing
TTITLE3=disposable society
TTITLE4=living alone ( we're gonna make it )
TTITLE5=such a night
TTITLE6=can't trust your neighbor with your baby
EXTD=
EXTT0=
EXTT1=
EXTT2=
EXTT3=
EXTT4=
EXTT5=
EXTT6=
PLAYORDER=
